<svg width="20" height="20" viewBox="0 0 20 18" fill="none" xmlns="http://www.w3.org/2000/svg">
<mask id="path-1-inside-1_288_2741" fill="white">
<path d="M15 4L13.59 5.41L16.17 8H6V10H16.17L13.59 12.58L15 14L20 9M2 2H10V0H2C0.9 0 0 0.9 0 2V16C0 17.1 0.9 18 2 18H10V16H2V2Z"/>
</mask>
<path d="M15 4L13.59 5.41L16.17 8H6V10H16.17L13.59 12.58L15 14L20 9M2 2H10V0H2C0.9 0 0 0.9 0 2V16C0 17.1 0.9 18 2 18H10V16H2V2Z" fill="currentColor"/>
<path d="M13.59 5.41L12.8829 4.70289L12.1772 5.40863L12.8815 6.11574L13.59 5.41ZM16.17 8V9H18.5776L16.8785 7.29426L16.17 8ZM6 8V7H5V8H6ZM6 10H5V11H6V10ZM16.17 10L16.8771 10.7071L18.5842 9H16.17V10ZM13.59 12.58L12.8829 11.8729L12.1783 12.5775L12.8804 13.2846L13.59 12.58ZM15 14L14.2904 14.7046L14.9975 15.4167L15.7071 14.7071L15 14ZM2 2V1H1V2H2ZM10 2V3H11V2H10ZM10 0H11V-1H10V0ZM10 18V19H11V18H10ZM10 16H11V15H10V16ZM2 16H1V17H2V16ZM14.2929 3.29289L12.8829 4.70289L14.2971 6.11711L15.7071 4.70711L14.2929 3.29289ZM12.8815 6.11574L15.4615 8.70574L16.8785 7.29426L14.2985 4.70426L12.8815 6.11574ZM16.17 7H6V9H16.17V7ZM5 8V10H7V8H5ZM6 11H16.17V9H6V11ZM15.4629 9.29289L12.8829 11.8729L14.2971 13.2871L16.8771 10.7071L15.4629 9.29289ZM12.8804 13.2846L14.2904 14.7046L15.7096 13.2954L14.2996 11.8754L12.8804 13.2846ZM15.7071 14.7071L20.7071 9.70711L19.2929 8.29289L14.2929 13.2929L15.7071 14.7071ZM2 3H10V1H2V3ZM11 2V0H9V2H11ZM10 -1H2V1H10V-1ZM2 -1C0.347715 -1 -1 0.347715 -1 2H1C1 1.45228 1.45228 1 2 1V-1ZM-1 2V16H1V2H-1ZM-1 16C-1 17.6523 0.347715 19 2 19V17C1.45228 17 1 16.5477 1 16H-1ZM2 19H10V17H2V19ZM11 18V16H9V18H11ZM10 15H2V17H10V15ZM3 16V2H1V16H3Z" fill="currentColor" mask="url(#path-1-inside-1_288_2741)"/>
</svg>
