<svg width="20" height="20" viewBox="0 0 21 20" fill="none" xmlns="http://www.w3.org/2000/svg">
<mask id="path-1-inside-1_288_3010" fill="currentColor">
<path d="M18.9 10.6599C18.7397 10.4774 18.6513 10.2428 18.6513 9.9999C18.6513 9.75699 18.7397 9.52238 18.9 9.3399L20.18 7.89989C20.3211 7.74256 20.4086 7.5446 20.4302 7.3344C20.4518 7.12421 20.4062 6.91258 20.3 6.72989L18.3 3.2699C18.1949 3.08742 18.0349 2.94277 17.8428 2.85658C17.6506 2.77039 17.4362 2.74705 17.23 2.7899L15.35 3.1699C15.1108 3.21932 14.8617 3.17948 14.6499 3.0579C14.438 2.93631 14.278 2.74138 14.2 2.5099L13.59 0.679895C13.5229 0.481274 13.3951 0.30876 13.2246 0.186737C13.0542 0.0647141 12.8496 -0.000646047 12.64 -0.000104886H8.64C8.42194 -0.0114869 8.20614 0.0488215 8.02557 0.171609C7.845 0.294397 7.70958 0.472914 7.64 0.679895L7.08 2.5099C7.002 2.74138 6.84198 2.93631 6.63012 3.0579C6.41826 3.17948 6.16922 3.21932 5.93 3.1699L4 2.7899C3.80455 2.76228 3.6053 2.79312 3.42735 2.87853C3.2494 2.96395 3.1007 3.10012 3 3.2699L1 6.72989C0.891163 6.91054 0.842225 7.12098 0.860186 7.33112C0.878146 7.54126 0.962085 7.74034 1.1 7.89989L2.37 9.3399C2.53032 9.52238 2.61874 9.75699 2.61874 9.9999C2.61874 10.2428 2.53032 10.4774 2.37 10.6599L1.1 12.0999C0.962085 12.2595 0.878146 12.4585 0.860186 12.6687C0.842225 12.8788 0.891163 13.0892 1 13.2699L3 16.7299C3.1051 16.9124 3.26512 17.057 3.45726 17.1432C3.64939 17.2294 3.86383 17.2527 4.07 17.2099L5.95 16.8299C6.18922 16.7805 6.43826 16.8203 6.65012 16.9419C6.86198 17.0635 7.022 17.2584 7.1 17.4899L7.71 19.3199C7.77958 19.5269 7.915 19.7054 8.09557 19.8282C8.27614 19.951 8.49194 20.0113 8.71 19.9999H12.71C12.9196 20.0004 13.1242 19.9351 13.2946 19.8131C13.4651 19.691 13.5929 19.5185 13.66 19.3199L14.27 17.4899C14.348 17.2584 14.508 17.0635 14.7199 16.9419C14.9317 16.8203 15.1808 16.7805 15.42 16.8299L17.3 17.2099C17.5062 17.2527 17.7206 17.2294 17.9128 17.1432C18.1049 17.057 18.2649 16.9124 18.37 16.7299L20.37 13.2699C20.4762 13.0872 20.5218 12.8756 20.5002 12.6654C20.4786 12.4552 20.3911 12.2572 20.25 12.0999L18.9 10.6599ZM17.41 11.9999L18.21 12.8999L16.93 15.1199L15.75 14.8799C15.0298 14.7327 14.2806 14.855 13.6446 15.2237C13.0086 15.5924 12.5301 16.1817 12.3 16.8799L11.92 17.9999H9.36L9 16.8599C8.76986 16.1617 8.29138 15.5724 7.65541 15.2037C7.01943 14.835 6.27022 14.7127 5.55 14.8599L4.37 15.0999L3.07 12.8899L3.87 11.9899C4.36196 11.4399 4.63394 10.7278 4.63394 9.98989C4.63394 9.25196 4.36196 8.53992 3.87 7.98989L3.07 7.0899L4.35 4.88989L5.53 5.1299C6.25022 5.27712 6.99943 5.15478 7.63541 4.78609C8.27138 4.41741 8.74986 3.82805 8.98 3.1299L9.36 1.9999H11.92L12.3 3.13989C12.5301 3.83805 13.0086 4.42741 13.6446 4.79609C14.2806 5.16478 15.0298 5.28712 15.75 5.13989L16.93 4.8999L18.21 7.11989L17.41 8.0199C16.9236 8.56866 16.655 9.27658 16.655 10.0099C16.655 10.7432 16.9236 11.4511 17.41 11.9999ZM10.64 5.9999C9.84888 5.9999 9.07552 6.23449 8.41772 6.67402C7.75992 7.11354 7.24724 7.73826 6.94448 8.46916C6.64173 9.20007 6.56252 10.0043 6.71686 10.7803C6.8712 11.5562 7.25217 12.2689 7.81158 12.8283C8.37099 13.3877 9.08372 13.7687 9.85964 13.923C10.6356 14.0774 11.4398 13.9982 12.1707 13.6954C12.9016 13.3927 13.5264 12.88 13.9659 12.2222C14.4054 11.5644 14.64 10.791 14.64 9.9999C14.64 8.93903 14.2186 7.92161 13.4684 7.17147C12.7183 6.42132 11.7009 5.9999 10.64 5.9999ZM10.64 11.9999C10.2444 11.9999 9.85776 11.8826 9.52886 11.6628C9.19996 11.4431 8.94362 11.1307 8.79224 10.7653C8.64087 10.3998 8.60126 9.99768 8.67843 9.60971C8.7556 9.22175 8.94608 8.86539 9.22579 8.58568C9.50549 8.30598 9.86186 8.11549 10.2498 8.03832C10.6378 7.96115 11.0399 8.00076 11.4054 8.15214C11.7708 8.30351 12.0832 8.55986 12.3029 8.88875C12.5227 9.21765 12.64 9.60433 12.64 9.9999C12.64 10.5303 12.4293 11.039 12.0542 11.4141C11.6791 11.7892 11.1704 11.9999 10.64 11.9999Z"/>
</mask>
<path d="M18.9 10.6599C18.7397 10.4774 18.6513 10.2428 18.6513 9.9999C18.6513 9.75699 18.7397 9.52238 18.9 9.3399L20.18 7.89989C20.3211 7.74256 20.4086 7.5446 20.4302 7.3344C20.4518 7.12421 20.4062 6.91258 20.3 6.72989L18.3 3.2699C18.1949 3.08742 18.0349 2.94277 17.8428 2.85658C17.6506 2.77039 17.4362 2.74705 17.23 2.7899L15.35 3.1699C15.1108 3.21932 14.8617 3.17948 14.6499 3.0579C14.438 2.93631 14.278 2.74138 14.2 2.5099L13.59 0.679895C13.5229 0.481274 13.3951 0.30876 13.2246 0.186737C13.0542 0.0647141 12.8496 -0.000646047 12.64 -0.000104886H8.64C8.42194 -0.0114869 8.20614 0.0488215 8.02557 0.171609C7.845 0.294397 7.70958 0.472914 7.64 0.679895L7.08 2.5099C7.002 2.74138 6.84198 2.93631 6.63012 3.0579C6.41826 3.17948 6.16922 3.21932 5.93 3.1699L4 2.7899C3.80455 2.76228 3.6053 2.79312 3.42735 2.87853C3.2494 2.96395 3.1007 3.10012 3 3.2699L1 6.72989C0.891163 6.91054 0.842225 7.12098 0.860186 7.33112C0.878146 7.54126 0.962085 7.74034 1.1 7.89989L2.37 9.3399C2.53032 9.52238 2.61874 9.75699 2.61874 9.9999C2.61874 10.2428 2.53032 10.4774 2.37 10.6599L1.1 12.0999C0.962085 12.2595 0.878146 12.4585 0.860186 12.6687C0.842225 12.8788 0.891163 13.0892 1 13.2699L3 16.7299C3.1051 16.9124 3.26512 17.057 3.45726 17.1432C3.64939 17.2294 3.86383 17.2527 4.07 17.2099L5.95 16.8299C6.18922 16.7805 6.43826 16.8203 6.65012 16.9419C6.86198 17.0635 7.022 17.2584 7.1 17.4899L7.71 19.3199C7.77958 19.5269 7.915 19.7054 8.09557 19.8282C8.27614 19.951 8.49194 20.0113 8.71 19.9999H12.71C12.9196 20.0004 13.1242 19.9351 13.2946 19.8131C13.4651 19.691 13.5929 19.5185 13.66 19.3199L14.27 17.4899C14.348 17.2584 14.508 17.0635 14.7199 16.9419C14.9317 16.8203 15.1808 16.7805 15.42 16.8299L17.3 17.2099C17.5062 17.2527 17.7206 17.2294 17.9128 17.1432C18.1049 17.057 18.2649 16.9124 18.37 16.7299L20.37 13.2699C20.4762 13.0872 20.5218 12.8756 20.5002 12.6654C20.4786 12.4552 20.3911 12.2572 20.25 12.0999L18.9 10.6599ZM17.41 11.9999L18.21 12.8999L16.93 15.1199L15.75 14.8799C15.0298 14.7327 14.2806 14.855 13.6446 15.2237C13.0086 15.5924 12.5301 16.1817 12.3 16.8799L11.92 17.9999H9.36L9 16.8599C8.76986 16.1617 8.29138 15.5724 7.65541 15.2037C7.01943 14.835 6.27022 14.7127 5.55 14.8599L4.37 15.0999L3.07 12.8899L3.87 11.9899C4.36196 11.4399 4.63394 10.7278 4.63394 9.98989C4.63394 9.25196 4.36196 8.53992 3.87 7.98989L3.07 7.0899L4.35 4.88989L5.53 5.1299C6.25022 5.27712 6.99943 5.15478 7.63541 4.78609C8.27138 4.41741 8.74986 3.82805 8.98 3.1299L9.36 1.9999H11.92L12.3 3.13989C12.5301 3.83805 13.0086 4.42741 13.6446 4.79609C14.2806 5.16478 15.0298 5.28712 15.75 5.13989L16.93 4.8999L18.21 7.11989L17.41 8.0199C16.9236 8.56866 16.655 9.27658 16.655 10.0099C16.655 10.7432 16.9236 11.4511 17.41 11.9999ZM10.64 5.9999C9.84888 5.9999 9.07552 6.23449 8.41772 6.67402C7.75992 7.11354 7.24724 7.73826 6.94448 8.46916C6.64173 9.20007 6.56252 10.0043 6.71686 10.7803C6.8712 11.5562 7.25217 12.2689 7.81158 12.8283C8.37099 13.3877 9.08372 13.7687 9.85964 13.923C10.6356 14.0774 11.4398 13.9982 12.1707 13.6954C12.9016 13.3927 13.5264 12.88 13.9659 12.2222C14.4054 11.5644 14.64 10.791 14.64 9.9999C14.64 8.93903 14.2186 7.92161 13.4684 7.17147C12.7183 6.42132 11.7009 5.9999 10.64 5.9999ZM10.64 11.9999C10.2444 11.9999 9.85776 11.8826 9.52886 11.6628C9.19996 11.4431 8.94362 11.1307 8.79224 10.7653C8.64087 10.3998 8.60126 9.99768 8.67843 9.60971C8.7556 9.22175 8.94608 8.86539 9.22579 8.58568C9.50549 8.30598 9.86186 8.11549 10.2498 8.03832C10.6378 7.96115 11.0399 8.00076 11.4054 8.15214C11.7708 8.30351 12.0832 8.55986 12.3029 8.88875C12.5227 9.21765 12.64 9.60433 12.64 9.9999C12.64 10.5303 12.4293 11.039 12.0542 11.4141C11.6791 11.7892 11.1704 11.9999 10.64 11.9999Z" fill="currentColor" stroke="currentColor" stroke-width="2" mask="url(#path-1-inside-1_288_3010)"/>
</svg>
