<svg width="32" height="32" viewBox="0 0 32 32" fill="none" xmlns="http://www.w3.org/2000/svg">
<path d="M28.8889 16C28.8889 16.7156 28.8311 17.4178 28.7155 18.1022C28.4 20.0533 27.64 21.8578 26.5422 23.4089V23.4133C24.6578 26.0933 21.7733 28.0222 18.4355 28.6578C17.4152 28.8526 16.3752 28.9242 15.3378 28.8711H15.3066C15.0977 28.8578 14.8889 28.8444 14.68 28.8222C14.6622 28.8222 14.6444 28.8178 14.6266 28.8178C14.4533 28.8 14.28 28.7778 14.1066 28.7511C14.0578 28.7422 14.0044 28.7378 13.9555 28.7289C13.8222 28.7067 13.6933 28.6845 13.56 28.6578C13.3511 28.6178 13.1422 28.5733 12.9333 28.52C12.8489 28.5022 12.76 28.48 12.6755 28.4578C12.56 28.4267 12.4444 28.3911 12.3289 28.3556C12.2266 28.3244 12.12 28.2933 12.0133 28.2578C11.908 28.227 11.8042 28.1915 11.7022 28.1511L11.4489 28.0578C11.4 28.0444 11.3555 28.0267 11.3066 28.0044C10.8981 27.8415 10.4977 27.6591 10.1066 27.4578C10.0044 27.4044 9.90664 27.3511 9.80442 27.2933C9.68886 27.2311 9.57775 27.1689 9.46664 27.1022C9.3422 27.0267 9.21775 26.9556 9.09331 26.8756C9.05775 26.8533 9.02219 26.8267 8.98664 26.8044C8.81331 26.6933 8.63997 26.5733 8.47553 26.4533C8.33331 26.3556 8.19553 26.2489 8.06219 26.1467C8.04927 26.1376 8.03735 26.1272 8.02664 26.1156C7.90664 26.0222 7.79108 25.9289 7.67997 25.8311C7.6222 25.7867 7.56442 25.7378 7.51108 25.6889L7.3822 25.5733C7.37331 25.5689 7.36886 25.5644 7.36442 25.56C7.35108 25.5467 7.33775 25.5333 7.32442 25.5244C7.31553 25.52 7.31108 25.5111 7.30664 25.5067C7.29875 25.5031 7.29242 25.4968 7.28886 25.4889C7.23196 25.4408 7.1771 25.3904 7.12442 25.3378C7.06664 25.2844 7.01331 25.2356 6.96442 25.1822C6.95553 25.1733 6.94664 25.1644 6.9422 25.1556C6.89775 25.1111 6.85331 25.0711 6.80886 25.0311C6.74131 24.9636 6.67908 24.888 6.61331 24.8178L6.60442 24.8089L6.60531 24.8093C6.45686 24.652 6.30753 24.496 6.16442 24.3289C6.05775 24.2044 5.95108 24.0756 5.84886 23.9422C4.50366 22.2282 3.61658 20.2002 3.27108 18.0489C3.16442 17.3822 3.11108 16.6978 3.11108 16C3.11108 13.2578 3.96442 10.7156 5.43108 8.62667C6.84886 6.59111 8.84442 4.98667 11.1778 4.04889C12.6666 3.44 14.2933 3.11111 16 3.11111C17.7022 3.11111 19.3289 3.44 20.8133 4.04445C21.9333 4.48889 22.9733 5.09334 23.9111 5.83111C24.16 6.02223 24.4044 6.22667 24.64 6.44445H24.6444C24.88 6.65778 25.1066 6.88 25.3244 7.11111C25.6578 7.45334 25.9644 7.81334 26.2533 8.19556C26.3466 8.32 26.4444 8.44889 26.5333 8.57778V8.58223C26.5333 8.58223 26.5333 8.57778 26.5378 8.58223C26.76 8.88889 26.9689 9.21334 27.1555 9.54667C27.2222 9.65778 27.2844 9.76889 27.3466 9.88445C27.4222 10.0222 27.4933 10.1556 27.5555 10.2933C27.6044 10.3867 27.6489 10.48 27.6933 10.5778C27.7644 10.72 27.8266 10.8622 27.8844 11.0044C27.9555 11.1644 28.0177 11.3244 28.0755 11.4889C28.1244 11.6133 28.1689 11.7378 28.2089 11.8667C28.2444 11.9689 28.28 12.0756 28.3155 12.1867C28.36 12.3289 28.4 12.4711 28.44 12.6133C28.4666 12.7156 28.4933 12.8133 28.5155 12.9156C28.5955 13.2311 28.6622 13.5467 28.7111 13.8711C28.7289 13.9644 28.7422 14.0578 28.7555 14.1556C28.7778 14.2978 28.7955 14.4444 28.8089 14.5867C28.8178 14.6489 28.8266 14.7111 28.8311 14.7689C28.8444 14.9244 28.8578 15.08 28.8622 15.24C28.8711 15.3067 28.8755 15.3689 28.8755 15.4356C28.8844 15.6222 28.8889 15.8089 28.8889 16Z" fill="#404040"/>
<path d="M28.8889 16C28.8889 16.7156 28.8311 17.4178 28.7155 18.1022C28.4 20.0533 27.64 21.8578 26.5422 23.4089V23.4133C24.6578 26.0933 21.7733 28.0222 18.4355 28.6578C17.4152 28.8526 16.3752 28.9242 15.3378 28.8711H15.3067C15.0978 28.8578 14.8889 28.8444 14.68 28.8222C14.6622 28.8222 14.6444 28.8178 14.6267 28.8178C14.4533 28.8 14.28 28.7778 14.1067 28.7511C14.0578 28.7422 14.0044 28.7378 13.9555 28.7289C13.8222 28.7067 13.6933 28.6844 13.56 28.6578C13.3511 28.6178 13.1422 28.5733 12.9333 28.52C12.8489 28.5022 12.76 28.48 12.6755 28.4578C12.56 28.4267 12.4444 28.3911 12.3289 28.3556C12.2267 28.3244 12.12 28.2933 12.0133 28.2578C11.908 28.227 11.8042 28.1914 11.7022 28.1511L11.4489 28.0578C11.4 28.0444 11.3555 28.0267 11.3067 28.0044C11.1333 27.9333 10.96 27.8622 10.7911 27.7867C10.6755 27.7333 10.56 27.68 10.4489 27.6267C10.3333 27.5733 10.2222 27.5156 10.1067 27.4578C10.0044 27.4044 9.90665 27.3511 9.80443 27.2933C9.68888 27.2311 9.57776 27.1689 9.46665 27.1022C9.34221 27.0267 9.21776 26.9556 9.09332 26.8756C9.05776 26.8533 9.02221 26.8267 8.98665 26.8044C8.81332 26.6933 8.63999 26.5733 8.47554 26.4533C8.33332 26.3556 8.19554 26.2489 8.06221 26.1467C8.04929 26.1376 8.03737 26.1272 8.02665 26.1156C7.90665 26.0222 7.7911 25.9289 7.67999 25.8311C7.55429 25.7244 7.42984 25.6162 7.30665 25.5067C7.29876 25.5031 7.29244 25.4968 7.28888 25.4889C7.17332 25.3778 7.05332 25.2711 6.94221 25.1556C6.82665 25.04 6.71554 24.9244 6.60443 24.8089C8.37776 25.8489 10.4267 26.4844 12.6133 26.5644C12.7822 26.5733 12.9511 26.5778 13.12 26.5778C16.1244 26.5778 18.8933 25.5511 21.0844 23.8222C23.7467 21.7289 25.5644 18.6089 25.9378 15.0578C25.9867 14.6089 26.0089 14.1511 26.0089 13.6889C26.0089 12.7689 25.9111 11.8756 25.7289 11.0133V11.0089C25.2442 8.72368 24.1456 6.61392 22.5511 4.90666C23.0222 5.18666 23.48 5.49777 23.9111 5.83111C24.16 6.02666 24.4044 6.23111 24.64 6.44444C24.64 6.44444 24.64 6.44 24.6444 6.44444C24.88 6.66222 25.1067 6.88 25.3244 7.11111C25.76 7.56888 26.1689 8.06222 26.5333 8.58222C26.7555 8.89333 26.9644 9.21333 27.1555 9.54666C27.2222 9.65777 27.2844 9.76888 27.3467 9.88444C27.4222 10.0222 27.4933 10.1556 27.5555 10.2933C27.6044 10.3867 27.6489 10.48 27.6933 10.5778C27.7644 10.72 27.8267 10.8622 27.8844 11.0044C27.9555 11.1644 28.0178 11.3244 28.0755 11.4889C28.1244 11.6133 28.1689 11.7378 28.2089 11.8667C28.2444 11.9689 28.28 12.0756 28.3155 12.1867C28.36 12.3289 28.4 12.4711 28.44 12.6133C28.4667 12.7156 28.4933 12.8133 28.5155 12.9156C28.5955 13.2311 28.6622 13.5467 28.7111 13.8711C28.7289 13.9644 28.7422 14.0578 28.7555 14.1556C28.7778 14.2978 28.7955 14.4444 28.8089 14.5867C28.8178 14.6489 28.8267 14.7111 28.8311 14.7689C28.8444 14.9244 28.8578 15.08 28.8622 15.24C28.8711 15.3067 28.8755 15.3689 28.8755 15.4356C28.8844 15.6222 28.8889 15.8089 28.8889 16Z" fill="#404040"/>
<path d="M28.8889 16C28.8889 16.7156 28.8311 17.4178 28.7155 18.1022C28.4 20.0533 27.64 21.8578 26.5422 23.4089V23.4133C24.6578 26.0933 21.7733 28.0222 18.4355 28.6578C17.4152 28.8526 16.3752 28.9242 15.3377 28.8711H15.3066C15.0978 28.8578 14.8889 28.8444 14.68 28.8222C14.6622 28.8222 14.6444 28.8178 14.6266 28.8178C14.4533 28.8 14.28 28.7778 14.1066 28.7511C14.0578 28.7422 14.0044 28.7378 13.9555 28.7289C13.8222 28.7067 13.6933 28.6844 13.56 28.6578C13.3511 28.6178 13.1422 28.5733 12.9333 28.52C12.8489 28.5022 12.76 28.48 12.6755 28.4578C12.56 28.4267 12.4444 28.3911 12.3289 28.3556C12.2266 28.3244 12.12 28.2933 12.0133 28.2578C11.908 28.227 11.8042 28.1915 11.7022 28.1511L11.4489 28.0578C11.4 28.0444 11.3555 28.0267 11.3066 28.0044C10.8981 27.8415 10.4977 27.6591 10.1066 27.4578C10.0044 27.4044 9.90664 27.3511 9.80442 27.2933C9.68886 27.2311 9.57775 27.1689 9.46664 27.1022C9.34219 27.0267 9.21775 26.9556 9.09331 26.8756C9.05775 26.8533 9.02219 26.8267 8.98664 26.8044C8.81331 26.6933 8.63997 26.5733 8.47553 26.4533C8.33331 26.3556 8.19553 26.2489 8.06219 26.1467C8.04927 26.1376 8.03735 26.1272 8.02664 26.1156C7.90664 26.0222 7.79108 25.9289 7.67997 25.8311C7.6222 25.7867 7.56442 25.7378 7.51108 25.6889L7.3822 25.5733C7.37331 25.5689 7.36886 25.5644 7.36442 25.56C7.35108 25.5467 7.33775 25.5333 7.32442 25.5244C7.31553 25.52 7.31108 25.5111 7.30664 25.5067C7.29875 25.5031 7.29242 25.4968 7.28886 25.4889C7.23196 25.4408 7.1771 25.3904 7.12442 25.3378C7.06664 25.2844 7.01331 25.2356 6.96442 25.1822C6.95553 25.1733 6.94664 25.1644 6.9422 25.1556C6.89775 25.1111 6.85331 25.0711 6.80886 25.0311C6.74131 24.9636 6.67908 24.888 6.61331 24.8178L6.60442 24.8089L6.60531 24.8093C6.45686 24.652 6.30753 24.496 6.16442 24.3289C6.05775 24.2044 5.95108 24.0756 5.84886 23.9422C4.50366 22.2282 3.61658 20.2002 3.27108 18.0489C3.16442 17.3822 3.11108 16.6978 3.11108 16C3.11108 13.2578 3.96442 10.7156 5.43108 8.62667C6.84886 6.59111 8.84442 4.98667 11.1778 4.04889C12.6666 3.44 14.2933 3.11111 16 3.11111C17.7022 3.11111 19.3289 3.44 20.8133 4.04445C21.9333 4.48889 22.9733 5.09334 23.9111 5.83111C24.16 6.02223 24.4044 6.22667 24.64 6.44445H24.6444C24.88 6.65778 25.1066 6.88 25.3244 7.11111C25.6578 7.45334 25.9644 7.81334 26.2533 8.19556C26.3466 8.32 26.4444 8.44889 26.5333 8.57778V8.58223C26.5333 8.58223 26.5333 8.57778 26.5378 8.58223C26.76 8.88889 26.9689 9.21334 27.1555 9.54667C27.2222 9.65778 27.2844 9.76889 27.3466 9.88445C27.4222 10.0222 27.4933 10.1556 27.5555 10.2933C27.6044 10.3867 27.6489 10.48 27.6933 10.5778C27.7644 10.72 27.8266 10.8622 27.8844 11.0044C27.9555 11.1644 28.0178 11.3244 28.0755 11.4889C28.1244 11.6133 28.1689 11.7378 28.2089 11.8667C28.2444 11.9689 28.28 12.0756 28.3155 12.1867C28.36 12.3289 28.4 12.4711 28.44 12.6133C28.4666 12.7156 28.4933 12.8133 28.5155 12.9156C28.5955 13.2311 28.6622 13.5467 28.7111 13.8711C28.7289 13.9644 28.7422 14.0578 28.7555 14.1556C28.7777 14.2978 28.7955 14.4444 28.8089 14.5867C28.8178 14.6489 28.8266 14.7111 28.8311 14.7689C28.8444 14.9244 28.8578 15.08 28.8622 15.24C28.8711 15.3067 28.8755 15.3689 28.8755 15.4356C28.8844 15.6222 28.8889 15.8089 28.8889 16Z" stroke="#040404" stroke-width="0.5" stroke-miterlimit="10" stroke-linecap="round" stroke-linejoin="round"/>
<path d="M15.2164 12.4769L12.4804 14.4644C12.2526 14.6299 12.0831 14.8633 11.996 15.1311C11.909 15.3989 11.909 15.6873 11.996 15.9551L13.0413 19.1711C13.1283 19.4389 13.2979 19.6723 13.5256 19.8378C13.7534 20.0033 14.0277 20.0924 14.3093 20.0924H17.6906C17.9723 20.0925 18.2467 20.0034 18.4746 19.8379C18.7024 19.6724 18.8721 19.439 18.9591 19.1711L20.0035 15.9551C20.0905 15.6873 20.0905 15.3989 20.0035 15.1311C19.9165 14.8633 19.7469 14.6299 19.5191 14.4644L16.7835 12.4769C16.5558 12.3115 16.2815 12.2224 16 12.2224C15.7185 12.2224 15.4442 12.3115 15.2164 12.4769ZM20.5689 4.52445L16.8311 6.35556C16.5689 6.48 16.2844 6.54223 16 6.53778C15.7466 6.53334 15.4933 6.47556 15.2533 6.36445L11.4266 4.54223C11.24 4.45334 11.1422 4.24445 11.1778 4.04889C12.6666 3.44 14.2933 3.11111 16 3.11111C17.7022 3.11111 19.3289 3.44 20.8133 4.04445C20.8489 4.23556 20.7555 4.43556 20.5689 4.52445ZM13.56 28.6578C13.3511 28.6178 13.1422 28.5733 12.9333 28.52C12.8489 28.5022 12.76 28.48 12.6755 28.4578C12.56 28.4267 12.4444 28.3911 12.3289 28.3556C12.2266 28.3244 12.12 28.2933 12.0133 28.2578C11.908 28.227 11.8042 28.1915 11.7022 28.1511L11.4489 28.0578C11.4 28.0444 11.3555 28.0267 11.3066 28.0044C11.1333 27.9333 10.96 27.8622 10.7911 27.7867C10.5591 27.6844 10.332 27.5733 10.1071 27.4573C10.0055 27.4046 9.90457 27.3504 9.80442 27.2947C9.69034 27.2324 9.57775 27.1683 9.46664 27.1022C9.34093 27.0291 9.21647 26.9538 9.09331 26.8764L8.98575 26.8049C7.59349 25.9044 6.38805 24.7438 5.43553 23.3867C5.51997 23.2356 5.69331 23.1422 5.88442 23.1644L10.0355 23.6711C10.32 23.7067 10.5866 23.8044 10.8178 23.96C11.0355 24.1067 11.2222 24.2978 11.36 24.5244L12.6133 26.5644L13.5866 28.1556C13.6844 28.3156 13.6711 28.5156 13.56 28.6578ZM6.73775 13.9422C6.6736 14.2032 6.55383 14.4473 6.38664 14.6578L3.76442 17.9022C3.63997 18.0533 3.43997 18.1067 3.27108 18.0489C3.16442 17.3822 3.11108 16.6978 3.11108 16C3.11108 13.2578 3.96442 10.7156 5.43108 8.62667C5.61775 8.64889 5.7822 8.78223 5.8222 8.97778L6.74664 13.1244C6.80886 13.3956 6.80442 13.6756 6.73775 13.9422ZM26.5422 23.4089V23.4133C24.6578 26.0933 21.7733 28.0222 18.4355 28.6578C18.32 28.5156 18.3066 28.3111 18.4044 28.1467L20.6222 24.5289C20.765 24.2966 20.9582 24.0994 21.1874 23.9517C21.4166 23.804 21.6761 23.7096 21.9466 23.6756L26.0844 23.1689C26.28 23.1467 26.4578 23.2489 26.5422 23.4089ZM28.8889 16C28.8889 16.7156 28.8311 17.4178 28.7155 18.1022C28.6343 18.1205 28.5496 18.1156 28.471 18.0881C28.3924 18.0606 28.3232 18.0116 28.2711 17.9467L25.9378 15.0578L25.6133 14.6578C25.4415 14.446 25.3202 14.1978 25.2586 13.9322C25.197 13.6665 25.1967 13.3903 25.2578 13.1244L25.7289 11.0133V11.0089L26.1911 8.92445C26.2266 8.75111 26.3644 8.61778 26.5333 8.58223C26.5333 8.57778 26.5333 8.57778 26.5378 8.58223C26.76 8.88889 26.9689 9.21334 27.1555 9.54667C27.2222 9.65778 27.2844 9.76889 27.3466 9.88445C27.4222 10.0222 27.4933 10.1556 27.5555 10.2933C27.6044 10.3867 27.6489 10.48 27.6933 10.5778C27.7644 10.72 27.8266 10.8622 27.8844 11.0044C27.9555 11.1644 28.0177 11.3244 28.0755 11.4889C28.1244 11.6133 28.1689 11.7378 28.2089 11.8667C28.2444 11.9689 28.28 12.0756 28.3155 12.1867C28.36 12.3289 28.4 12.4711 28.44 12.6133C28.4666 12.7156 28.4933 12.8133 28.5155 12.9156C28.5955 13.2311 28.6622 13.5467 28.7111 13.8711C28.7289 13.9644 28.7422 14.0578 28.7555 14.1556C28.7778 14.2978 28.7955 14.4444 28.8089 14.5867C28.8178 14.6489 28.8266 14.7111 28.8311 14.7689C28.8444 14.9244 28.8578 15.08 28.8622 15.24C28.8711 15.3067 28.8755 15.3689 28.8755 15.4356C28.8844 15.6222 28.8889 15.8089 28.8889 16Z" fill="#040404"/>
<path d="M16 6.53867V12.2222M19.9951 15.1067L25.2502 13.9231M18.4849 19.8298L21.1725 23.9613M13.5085 19.8249L10.8191 23.9613M12.0005 15.1196L6.73956 13.9436" stroke="#040404" stroke-width="0.5" stroke-miterlimit="10" stroke-linecap="round" stroke-linejoin="round"/>
</svg>
