<svg width="18" height="14" viewBox="0 0 18 14" fill="none" xmlns="http://www.w3.org/2000/svg">
<path fill-rule="evenodd" clip-rule="evenodd" d="M7.52983 0.470072C7.67028 0.610698 7.74917 0.801322 7.74917 1.00007C7.74917 1.19882 7.67028 1.38945 7.52983 1.53007L2.80983 6.25007H16.9998C17.1987 6.25007 17.3895 6.32909 17.5302 6.46974C17.6708 6.61039 17.7498 6.80116 17.7498 7.00007C17.7498 7.19898 17.6708 7.38975 17.5302 7.5304C17.3895 7.67105 17.1987 7.75007 16.9998 7.75007H2.80983L7.52983 12.4701C7.60351 12.5387 7.66262 12.6215 7.70361 12.7135C7.7446 12.8055 7.76664 12.9048 7.76842 13.0056C7.7702 13.1063 7.75167 13.2063 7.71395 13.2997C7.67623 13.3931 7.62009 13.4779 7.54887 13.5491C7.47765 13.6203 7.39281 13.6765 7.29943 13.7142C7.20604 13.7519 7.10601 13.7704 7.00531 13.7687C6.9046 13.7669 6.80529 13.7448 6.71329 13.7039C6.62129 13.6629 6.53849 13.6038 6.46983 13.5301L0.469828 7.53007C0.329378 7.38945 0.250488 7.19882 0.250488 7.00007C0.250488 6.80132 0.329378 6.6107 0.469828 6.47007L6.46983 0.470072C6.61045 0.329622 6.80108 0.250732 6.99983 0.250732C7.19858 0.250732 7.3892 0.329622 7.52983 0.470072Z" fill="#43C6AC"/>
</svg>
